<svg width="172" height="24" viewBox="0 0 172 24" fill="none" xmlns="http://www.w3.org/2000/svg">
<path d="M19.2875 5.18678H6.60268V8.81414H18.1219V14.0009H6.60268V18.1029H19.2875V23.2897H0.740234V0H19.2875V5.18678Z" fill="black"/>
<path d="M39.5998 0H46.1822L36.8571 23.2897H30.2747L20.9497 0H27.5321L33.5659 15.0857L39.5998 0Z" fill="black"/>
<path d="M67.1636 5.18678H54.4787V8.81414H65.9979V14.0009H54.4787V18.1029H67.1636V23.2897H48.6163V0H67.1636V5.18678Z" fill="black"/>
<path d="M91.3499 23.2897H84.6989L79.5221 16.0011H76.6423V23.2897H70.7799V0H81.7163C86.8931 0 90.6642 3.28835 90.6642 8.00052C90.6642 11.3906 88.7101 14.0687 85.6589 15.2891L91.3499 23.2897ZM76.6423 5.28848V10.7126H81.1677C83.1905 10.7126 84.6304 9.62775 84.6304 8.00052C84.6304 6.3733 83.1905 5.28848 81.1677 5.28848H76.6423Z" fill="black"/>
<path d="M99.9349 23.2897V15.2552L90.8155 0H97.5694L102.883 9.83115L108.437 0H114.951L105.832 15.2552V23.2897H99.9349Z" fill="black"/>
<path d="M117.185 23.2897V0H125.79C133.881 0 139.572 4.81387 139.572 11.6279C139.572 18.4419 133.881 23.2897 125.79 23.2897H117.185ZM123.048 18.0351H126.682C130.693 18.0351 133.573 15.3569 133.573 11.6279C133.573 7.89882 130.693 5.25458 126.682 5.25458H123.048V18.0351Z" fill="#1565C0"/>
<path d="M161.677 5.18678H148.992V8.81414H160.511V14.0009H148.992V18.1029H161.677V23.2897H143.13V0H161.677V5.18678Z" fill="#1565C0"/>
<path d="M165.396 23.2897V0H171.259V23.2897H165.396Z" fill="#1565C0"/>
</svg>
