<svg width="32" height="32" viewBox="0 0 32 32" fill="none" xmlns="http://www.w3.org/2000/svg">
<path d="M19.75 0L28 8L23.875 8.72727L19.75 8L19 4L19.75 0Z" fill="#188038"/>
<path d="M19.75 8V0H6.25C5.00688 0 4 0.976364 4 2.18182V29.8182C4 31.0236 5.00688 32 6.25 32H25.75C26.9931 32 28 31.0236 28 29.8182V8H19.75Z" fill="#34A853"/>
<path d="M8.5 12.3633V22.9087H23.5V12.3633H8.5ZM15.0625 21.0906H10.375V18.5451H15.0625V21.0906ZM15.0625 16.7269H10.375V14.1815H15.0625V16.7269ZM21.625 21.0906H16.9375V18.5451H21.625V21.0906ZM21.625 16.7269H16.9375V14.1815H21.625V16.7269Z" fill="white"/>
</svg>
