<svg width="32" height="32" viewBox="0 0 32 32" fill="none" xmlns="http://www.w3.org/2000/svg">
<path d="M5.66667 0.400391H26.3333C29.4667 0.400391 32 2.93372 32 6.06706V25.9337C32 29.0671 29.4667 31.6004 26.3333 31.6004H5.66667C2.53333 31.6004 0 29.0671 0 25.9337V6.06706C0 2.93372 2.53333 0.400391 5.66667 0.400391Z" fill="#470137"/>
<path d="M16.8264 8.60039L12.8264 15.2004L17.093 22.2004C17.1197 22.2537 17.133 22.3071 17.1197 22.3604C17.1064 22.4137 17.053 22.3737 16.973 22.3871H13.9197C13.7064 22.3871 13.5597 22.3737 13.4664 22.2404C13.1864 21.6804 12.893 21.1337 12.613 20.5737C12.333 20.0271 12.0264 19.4671 11.7064 18.8937C11.3864 18.3204 11.0664 17.7471 10.7464 17.1604H10.7197C10.4397 17.7337 10.133 18.3071 9.82636 18.8804C9.5197 19.4537 9.21303 20.0271 8.9197 20.5871C8.61303 21.1471 8.30636 21.7204 7.9997 22.2671C7.94636 22.4004 7.8397 22.4137 7.69303 22.4137H4.7597C4.70636 22.4137 4.66636 22.4404 4.66636 22.3737C4.65303 22.3204 4.66636 22.2671 4.69303 22.2271L8.8397 15.4271L4.7997 8.58706C4.7597 8.53372 4.74636 8.48039 4.77303 8.45372C4.7997 8.41372 4.85303 8.40039 4.90636 8.40039H7.93303C7.9997 8.40039 8.06636 8.41372 8.1197 8.42706C8.17303 8.45372 8.21303 8.49372 8.25303 8.54706C8.50636 9.12039 8.7997 9.69372 9.10636 10.2671C9.42636 10.8404 9.73303 11.4004 10.0664 11.9604C10.3864 12.5204 10.6797 13.0804 10.9597 13.6537H10.9864C11.2664 13.0671 11.5597 12.4937 11.853 11.9337C12.1464 11.3737 12.453 10.8137 12.7597 10.2537C13.0664 9.69372 13.3597 9.12039 13.653 8.57372C13.6664 8.52039 13.693 8.46706 13.733 8.44039C13.7864 8.41372 13.8397 8.40039 13.9064 8.41372H16.7197C16.7864 8.40039 16.853 8.44039 16.8664 8.50706C16.8797 8.52039 16.853 8.57372 16.8264 8.60039Z" fill="#FF61F6"/>
<path d="M22.9859 22.667C21.9992 22.6804 21.0126 22.4804 20.1192 22.067C19.2792 21.6804 18.5859 21.0404 18.1059 20.2537C17.6126 19.4404 17.3726 18.427 17.3726 17.2137C17.3592 16.227 17.6126 15.2537 18.1059 14.4004C18.6126 13.5337 19.3459 12.8137 20.2259 12.3337C21.1592 11.8137 22.2792 11.5604 23.5992 11.5604C23.6659 11.5604 23.7592 11.5604 23.8792 11.5737C23.9992 11.587 24.1326 11.587 24.2926 11.6004V7.38702C24.2926 7.29369 24.3326 7.24035 24.4259 7.24035H27.1326C27.1992 7.22702 27.2526 7.28035 27.2659 7.33369C27.2659 7.34702 27.2659 7.36035 27.2659 7.36035V20.0537C27.2659 20.2937 27.2792 20.5604 27.2926 20.8537C27.3192 21.1337 27.3326 21.4004 27.3459 21.627C27.3459 21.7204 27.3059 21.8004 27.2126 21.8404C26.5192 22.1337 25.7859 22.347 25.0392 22.4804C24.3592 22.6004 23.6792 22.667 22.9859 22.667ZM24.2926 20.0004V14.1337C24.1726 14.107 24.0526 14.0804 23.9326 14.067C23.7859 14.0537 23.6392 14.0404 23.4926 14.0404C22.9726 14.0404 22.4526 14.147 21.9859 14.387C21.5326 14.6137 21.1459 14.947 20.8526 15.3737C20.5592 15.8004 20.4126 16.3737 20.4126 17.067C20.3992 17.5337 20.4792 18.0004 20.6392 18.4404C20.7726 18.8004 20.9726 19.1204 21.2392 19.387C21.4926 19.627 21.7992 19.8137 22.1459 19.9204C22.5059 20.0404 22.8792 20.0937 23.2526 20.0937C23.4526 20.0937 23.6392 20.0804 23.8126 20.067C23.9859 20.0804 24.1326 20.0537 24.2926 20.0004Z" fill="#FF61F6"/>
</svg>
