<svg width="171" height="24" viewBox="0 0 171 24" fill="none" xmlns="http://www.w3.org/2000/svg">
<path d="M18.5996 5.62227H5.879V9.20451H17.4307V14.3268H5.879V18.3777H18.5996V23.5H0V0.5H18.5996V5.62227Z" fill="black"/>
<path d="M38.9693 0.5H45.5703L36.2189 23.5H29.6179L20.2665 0.5H26.8675L32.9184 15.3981L38.9693 0.5Z" fill="black"/>
<path d="M66.6109 5.62227H53.8903V9.20451H65.442V14.3268H53.8903V18.3777H66.6109V23.5H48.0113V0.5H66.6109V5.62227Z" fill="black"/>
<path d="M90.8656 23.5H84.1958L79.0044 16.302H76.1165V23.5H70.2375V0.5H81.2048C86.3962 0.5 90.178 3.74745 90.178 8.40102C90.178 11.7489 88.2183 14.3937 85.1585 15.599L90.8656 23.5ZM76.1165 5.72271V11.0793H80.6547C82.6831 11.0793 84.1271 10.008 84.1271 8.40102C84.1271 6.79403 82.6831 5.72271 80.6547 5.72271H76.1165Z" fill="black"/>
<path d="M99.4748 23.5V15.5655L90.3297 0.5H97.1026L102.432 10.2089L108.001 0.5H114.533L105.388 15.5655V23.5H99.4748Z" fill="black"/>
<path d="M116.774 23.5V0.5H125.403C133.517 0.5 139.224 5.254 139.224 11.9833C139.224 18.7125 133.517 23.5 125.403 23.5H116.774ZM122.653 18.3108H126.297C130.32 18.3108 133.208 15.6659 133.208 11.9833C133.208 8.30058 130.32 5.68923 126.297 5.68923H122.653V18.3108Z" fill="#1565C0"/>
<path d="M161.391 5.62227H148.671V9.20451H160.222V14.3268H148.671V18.3777H161.391V23.5H142.792V0.5H161.391V5.62227Z" fill="#1565C0"/>
<path d="M165.121 23.5V0.5H171V23.5H165.121Z" fill="#1565C0"/>
</svg>
