<svg width="32" height="32" viewBox="0 0 32 32" fill="none" xmlns="http://www.w3.org/2000/svg">
<path d="M17.0996 16C17.0996 13.422 19.1376 11.334 21.6496 11.334C24.1636 11.334 26.1996 13.42 26.1996 16C26.1996 18.578 24.1636 20.666 21.6496 20.666C19.1396 20.666 17.0996 18.58 17.0996 16Z" fill="#1ABCFE"/>
<path d="M8 25.334C8 22.756 10.038 20.666 12.55 20.666H17.1V25.334C17.1 27.91 15.062 30 12.55 30C10.038 30 8 27.91 8 25.334Z" fill="#0ACF83"/>
<path d="M17.0996 2V11.334H21.6496C24.1636 11.334 26.1996 9.244 26.1996 6.666C26.1996 4.09 24.1636 2 21.6496 2H17.0996Z" fill="#FF7262"/>
<path d="M8 6.666C8 9.244 10.038 11.334 12.55 11.334H17.1V2H12.55C10.038 2 8 4.09 8 6.666Z" fill="#F24E1E"/>
<path d="M8 16C8 18.578 10.038 20.666 12.55 20.666H17.1V11.334H12.55C10.038 11.334 8 13.42 8 16Z" fill="#A259FF"/>
<rect x="20" y="20" width="12" height="12" rx="6" fill="black" fill-opacity="0.3"/>
<path d="M22.5 26H29.5M26 22.5V29.5" stroke="white" stroke-width="2" stroke-linecap="round" stroke-linejoin="round"/>
</svg>
