<svg width="32" height="32" viewBox="0 0 32 32" fill="none" xmlns="http://www.w3.org/2000/svg">
<path d="M29.9499 17.8084L28.3799 13.1004L25.2759 3.7604C25.2391 3.65465 25.1702 3.56306 25.0787 3.4985C24.9873 3.43393 24.8779 3.39963 24.7659 3.4004C24.6543 3.40005 24.5453 3.43454 24.4543 3.49908C24.3632 3.56362 24.2946 3.65497 24.2579 3.7604L21.1539 13.0944H10.8439L7.7399 3.7584C7.70318 3.65318 7.63445 3.56209 7.54335 3.49789C7.45225 3.43369 7.34335 3.3996 7.2319 3.4004C7.12022 3.39975 7.01113 3.43413 6.92001 3.49871C6.82888 3.56328 6.7603 3.65481 6.7239 3.7604L3.6239 13.0944L2.0559 17.8084C1.98651 18.0184 1.98658 18.2452 2.05609 18.4552C2.12561 18.6652 2.26089 18.8473 2.4419 18.9744L16.0019 28.5984L29.5579 18.9744C29.7397 18.8479 29.876 18.6662 29.9466 18.4562C30.0172 18.2462 30.0184 18.0191 29.9499 17.8084Z" fill="#FC6D26"/>
<path d="M15.9997 28.5918L21.1557 13.0918H10.8457L15.9997 28.5918Z" fill="#E24329"/>
<path d="M16 28.5918L10.842 13.0918H3.62598L16 28.5918Z" fill="#FC6D26"/>
<path d="M3.62 13.0977L2.052 17.8057C1.9826 18.0157 1.98267 18.2425 2.05219 18.4525C2.12171 18.6625 2.25698 18.8445 2.438 18.9717L16 28.5997L3.62 13.0997V13.0977Z" fill="#FCA326"/>
<path d="M3.62402 13.0983H10.848L7.74002 3.76431C7.70337 3.65888 7.63472 3.56752 7.54366 3.50299C7.45259 3.43845 7.34364 3.40395 7.23202 3.40431C7.12007 3.40353 7.01067 3.43784 6.91921 3.5024C6.82774 3.56697 6.75878 3.65856 6.72202 3.76431L3.62402 13.0983Z" fill="#E24329"/>
<path d="M16 28.5918L21.156 13.0918H28.384L16 28.5918Z" fill="#FC6D26"/>
<path d="M28.38 13.0977L29.946 17.8057C30.0157 18.0157 30.0158 18.2426 29.9463 18.4526C29.8767 18.6627 29.7413 18.8447 29.56 18.9717L16 28.5917L28.376 13.0977H28.38Z" fill="#FCA326"/>
<path d="M28.3802 13.0983H21.1602L24.2622 3.76432C24.2987 3.6584 24.3675 3.56664 24.4591 3.50204C24.5506 3.43743 24.6601 3.40324 24.7722 3.40432C25.0022 3.40432 25.2062 3.55032 25.2802 3.76432L28.3842 13.0983H28.3802Z" fill="#E24329"/>
<rect x="20" y="20" width="12" height="12" rx="6" fill="black" fill-opacity="0.3"/>
<path d="M22.5 26H29.5M26 22.5V29.5" stroke="white" stroke-width="2" stroke-linecap="round" stroke-linejoin="round"/>
</svg>
