<svg width="21" height="20" viewBox="0 0 21 20" fill="none" xmlns="http://www.w3.org/2000/svg">
<mask id="mask0_397_492" style="mask-type:luminance" maskUnits="userSpaceOnUse" x="0" y="0" width="21" height="20">
<path d="M20.5 0H0.5V20H20.5V0Z" fill="white"/>
</mask>
<g mask="url(#mask0_397_492)">
<path d="M20.1 10.2271C20.1 9.51804 20.0364 8.83624 19.9182 8.18164H10.5V12.0498H15.8818C15.65 13.2998 14.9455 14.3589 13.8864 15.068V17.5771H17.1182C19.0091 15.8362 20.1 13.2725 20.1 10.2271Z" fill="#4285F4"/>
<path d="M10.5009 20.0004C13.2009 20.0004 15.4645 19.1049 17.119 17.5777L13.8872 15.0686C12.9918 15.6686 11.8463 16.0231 10.5009 16.0231C7.89625 16.0231 5.69175 14.264 4.90535 11.9004H1.56445V14.4913C3.20995 17.7595 6.59175 20.0004 10.5009 20.0004Z" fill="#34A853"/>
<path d="M4.9045 11.9007C4.7045 11.3007 4.5909 10.6598 4.5909 10.0007C4.5909 9.34157 4.7045 8.70067 4.9045 8.10067V5.50977H1.5636C0.8864 6.85977 0.5 8.38707 0.5 10.0007C0.5 11.6143 0.8864 13.1416 1.5636 14.4916L4.9045 11.9007Z" fill="#FBBC04"/>
<path d="M10.5009 3.9773C11.969 3.9773 13.2872 4.4818 14.3236 5.4727L17.1918 2.6045C15.46 0.9909 13.1963 0 10.5009 0C6.59175 0 3.20995 2.2409 1.56445 5.5091L4.90535 8.1C5.69175 5.7364 7.89625 3.9773 10.5009 3.9773Z" fill="#E94235"/>
</g>
</svg>
